<?xml version="1.0" encoding="utf-8"?>
<!-- Generator: Adobe Illustrator 20.1.0, SVG Export Plug-In . SVG Version: 6.00 Build 0)  -->
<svg version="1.1" xmlns="http://www.w3.org/2000/svg" xmlns:xlink="http://www.w3.org/1999/xlink" x="0px" y="0px" width="48px"
	 height="48px" viewBox="0 0 48 48" style="enable-background:new 0 0 48 48;" xml:space="preserve">
<style type="text/css">
	.st0{fill:#F6F6F6;}
	.st1{fill:none;}
	.st2{fill:#58595B;}
	.st3{fill:#F0EFF1;}
</style>
<g id="Layer_1">
</g>
<g id="icon_x5F_bg">
	<path class="st0" d="M7.3,43l-0.2,0c-3-0.4-6.1-2.6-6.1-6.5v-21c0-2.8,1.6-4.9,4.3-5.4L5.6,10h11.8l3.6-6h19.6c2.6,0,4,1.1,4.7,2
		c0.9,1.2,1,2.6,0.8,3.7v26.5c0.2,1,0.3,3.1-1.1,4.8c-0.7,0.9-2,2-4.4,2H7.3z"/>
	<polygon class="st1" points="22.6,13 40,13 40,10 24.1,10 	"/>
	<path class="st2" d="M43,36.5V9.5c0,0,0.8-2.5-2.5-2.5S22.6,7,22.6,7L19,13h0H7.5H5.9C5,13.2,4,13.8,4,15.5c0,2.6,0,15.1,0,21
		c0,3,3.5,3.5,3.5,3.5s29.7,0,33,0S43,36.5,43,36.5z M40,13H22.6l1.6-3H40V13z"/>
	<polygon class="st3" points="22.5,13 40,13 40,10 24,10 	"/>
</g>
</svg>
